<svg xmlns="http://www.w3.org/2000/svg" viewBox="0 0 646.385 477.104" role="img"><title>YourSite</title><rect x="183.19" y="20.00" width="280.00" height="280.00" rx="61.60" fill="#0284c7"/><rect x="250.39" y="87.20" width="145.60" height="145.60" rx="30.80" fill="none" stroke="#ffffff" stroke-opacity="0.55" stroke-width="11.20"/><circle cx="323.19" cy="160.00" r="39.20" fill="#a78bfa"/><path fill="#0f172a" d="M65.52249999999995 440.0V397.37L30.38249999999995 338.78H52.502499999999955L75.81249999999996 379.8L98.84249999999996 338.78H121.17249999999996L85.96249999999995 397.44V440.0ZM162.82249999999996 441.4Q152.18249999999995 441.4 144.30749999999995 436.85Q136.43249999999995 432.3 132.12749999999994 423.97Q127.82249999999996 415.64 127.82249999999996 404.23Q127.82249999999996 392.82 132.12749999999994 384.28Q136.43249999999995 375.74 144.30749999999995 370.98Q152.18249999999995 366.22 162.89249999999996 366.22Q173.60249999999996 366.22 181.44249999999997 370.875Q189.28249999999997 375.53 193.55249999999995 384.07Q197.82249999999996 392.61 197.82249999999996 404.23Q197.82249999999996 415.15 193.65749999999997 423.515Q189.49249999999995 431.88 181.68749999999994 436.64Q173.88249999999996 441.4 162.82249999999996 441.4ZM162.89249999999996 426.21Q168.28249999999997 426.21 171.57249999999996 423.05999999999995Q174.86249999999995 419.90999999999997 176.33249999999995 414.765Q177.80249999999995 409.62 177.80249999999995 403.53Q177.80249999999995 397.79 176.47249999999997 392.68Q175.14249999999996 387.57 171.85249999999996 384.41999999999996Q168.56249999999994 381.27 162.89249999999996 381.27Q157.50249999999994 381.27 154.17749999999995 384.245Q150.85249999999996 387.21999999999997 149.31249999999994 392.29499999999996Q147.77249999999995 397.37 147.77249999999995 403.53Q147.77249999999995 409.2 149.17249999999996 414.41499999999996Q150.57249999999996 419.63 153.86249999999995 422.91999999999996Q157.15249999999997 426.21 162.89249999999996 426.21ZM238.49249999999995 441.4Q233.45249999999996 441.4 228.58749999999998 439.86Q223.72249999999997 438.32 219.73249999999996 435.31Q215.74249999999995 432.3 213.32749999999996 427.89Q210.91249999999997 423.48 210.91249999999997 417.67V367.62H231.35249999999996V415.08Q231.35249999999996 420.12 234.64249999999998 423.34000000000003Q237.93249999999998 426.56 244.30249999999995 426.56Q250.32249999999996 426.56 253.85749999999996 423.445Q257.3925 420.33 257.3925 414.73V367.62H277.62249999999995V440.0H262.22249999999997L259.8425 425.65Q258.5825 432.02 255.11749999999998 435.41499999999996Q251.65249999999997 438.81 247.20749999999998 440.105Q242.76249999999996 441.4 238.49249999999995 441.4ZM295.1225 440.0V367.62H314.7925V384.77Q316.5425 379.24 319.7275 375.075Q322.9125 370.90999999999997 327.4625 368.565Q332.0125 366.22 337.7525 366.22Q338.7325 366.22 339.6075 366.32500000000005Q340.4825 366.43 340.90250000000003 366.64V386.1Q340.27250000000004 385.82 339.39750000000004 385.75Q338.52250000000004 385.68 337.8225 385.61Q331.8025 385.12 327.5325 385.96000000000004Q323.2625 386.8 320.60249999999996 388.83000000000004Q317.9425 390.86 316.7525 393.8Q315.5625 396.74 315.5625 400.38V440.0ZM393.3325 441.4Q385.77250000000004 441.4 378.5625 439.51Q371.3525 437.62 365.40250000000003 433.84000000000003Q359.4525 430.06 355.6375 424.39Q351.8225 418.72 351.0525 411.09H371.9825Q373.0325 415.71 376.00750000000005 418.86Q378.9825 422.01 383.7075 423.69Q388.4325 425.37 394.52250000000004 425.37Q399.3525 425.37 403.6925 423.97Q408.0325 422.57 410.76250000000005 419.7Q413.4925 416.83 413.4925 412.49Q413.4925 407.31 409.7125 404.685Q405.9325 402.06 399.4225 400.52L380.4525 396.39Q372.40250000000003 394.71 366.4175 391.17499999999995Q360.4325 387.64 357.2125 381.935Q353.9925 376.23 353.9925 368.03999999999996Q353.9925 358.59 359.2075 351.73Q364.4225 344.87 373.4175 341.195Q382.4125 337.52 393.6125 337.52Q406.2825 337.52 414.99750000000006 341.615Q423.71250000000003 345.71 428.3325 352.67499999999995Q432.9525 359.64 433.02250000000004 368.18H412.5825Q412.02250000000004 362.93 409.3625 359.745Q406.7025 356.56 402.5375 355.125Q398.3725 353.69 393.0525 353.69Q383.8825 353.69 379.6825 357.4Q375.4825 361.11 375.4825 366.01Q375.4825 370.63 378.6675 373.46500000000003Q381.8525 376.3 388.9225 377.77L406.4925 381.55Q416.2925 383.44 422.38250000000005 387.53499999999997Q428.4725 391.63 431.27250000000004 397.44Q434.0725 403.25 434.0725 410.46Q434.0725 419.63 428.8575 426.595Q423.64250000000004 433.56 414.4725 437.48Q405.3025 441.4 393.3325 441.4ZM449.8925 440.0V367.62H469.4225V440.0ZM449.6825 357.26V338.85H469.5625V357.26ZM518.2825 440.77Q508.6925 440.77 503.47749999999996 438.32Q498.2625 435.87 496.2675 431.46000000000004Q494.2725 427.05 494.2725 421.24V381.83H482.5125V367.62H494.9025L500.0825 345.78H514.6425V367.55H530.7425000000001V381.83H514.6425L514.7825 420.4Q514.7825 423.06 515.4475 424.355Q516.1125 425.65 517.5474999999999 426.03499999999997Q518.9825 426.42 521.2225 426.42H530.9525V439.02Q529.4825 439.65 526.5425 440.21Q523.6025 440.77 518.2825 440.77ZM578.6225 441.4Q567.8425 441.4 559.6875 436.885Q551.5324999999999 432.37 546.9824999999998 424.11Q542.4324999999999 415.85 542.4324999999999 404.65Q542.4324999999999 393.8 546.5974999999999 385.08500000000004Q550.7624999999999 376.37 558.6025 371.295Q566.4425 366.22 577.5725 366.22Q588.6324999999999 366.22 596.1225 370.875Q603.6125 375.53 607.4625 383.825Q611.3125 392.12 611.3125 402.97V408.5H562.6624999999999Q562.6624999999999 414.03 564.4824999999998 418.125Q566.3024999999999 422.22 569.7674999999999 424.425Q573.2325 426.63 578.1324999999999 426.63Q583.3824999999999 426.63 587.3025 424.39Q591.2225 422.15 592.8325 417.04H611.2425Q609.9825 424.74 605.0825 430.20000000000005Q600.1825 435.66 593.1824999999999 438.53Q586.1824999999999 441.4 578.6225 441.4ZM562.6624999999999 396.32H592.2025Q592.2025 391.98 590.5574999999999 388.34000000000003Q588.9124999999999 384.7 585.6574999999999 382.6Q582.4024999999999 380.5 577.5024999999999 380.5Q572.8125 380.5 569.4875 382.775Q566.1624999999999 385.05 564.3774999999999 388.69Q562.5925 392.33 562.6624999999999 396.32Z"/></svg>
